<?xml version="1.0" encoding="utf-8"?>
<!-- Generator: Adobe Illustrator 19.2.1, SVG Export Plug-In . SVG Version: 6.00 Build 0)  -->
<svg version="1.1" id="Layer_1" xmlns="http://www.w3.org/2000/svg" xmlns:xlink="http://www.w3.org/1999/xlink" x="0px" y="0px"
	 viewBox="0 0 66 150" style="enable-background:new 0 0 66 150;" xml:space="preserve">
<style type="text/css">
	.st0{display:none;fill:none;stroke:#FFFFFF;stroke-width:2;stroke-linecap:round;stroke-miterlimit:10;}
	.st1{fill:#A2F1FF;}
	.st2{fill:#FF868A;}
	.st3{fill:#FFFFFF;}
	.st4{fill:#58595B;}
	.st5{fill:#E5E6E7;}
	.st6{fill:#A3D3E3;}
	.st7{fill:#DD797F;}
	.st8{fill:#6D6E71;}
	.st9{fill:#4A4A4B;}
	.st10{fill:#414042;}
	.st11{fill:#E75C54;}
	.st12{fill:#FFE336;}
	.st13{fill:#56C681;}
	.st14{fill:#F37970;}
	.st15{fill:#FFEE85;}
	.st16{fill:#79D29B;}
	.st17{fill:#C44242;}
	.st18{fill:#FFBC13;}
	.st19{fill:#3AAB64;}
	.st20{fill:#4E4D4F;}
	.st21{fill:#63CF83;}
	.st22{fill:#FFE77A;}
	.st23{fill:#4FC37B;}
	.st24{fill:#FCDA71;}
	.st25{fill:#F0F1F1;}
	.st26{fill:#E38026;}
	.st27{fill:#BBBDBF;}
	.st28{fill:#7CC9B4;}
	.st29{fill:#8BDBC7;}
	.st30{fill:#3EBDA4;}
	.st31{fill:#4E706E;}
	.st32{fill:#3EAD95;}
	.st33{fill:#BA9C44;}
	.st34{fill:#B0933E;}
	.st35{fill:#F2C84C;}
	.st36{fill:#3A3A3B;}
	.st37{fill:#EF5E90;}
	.st38{fill:#363637;}
	.st39{fill:#A87C50;}
	.st40{fill:#594A42;}
	.st41{fill:#FFFDE7;}
	.st42{fill:#CAA94C;}
	.st43{fill:#D0D2D3;}
	.st44{fill:#8F6A44;}
	.st45{fill:#483B34;}
	.st46{fill:#AE923D;}
	.st47{fill:#D9D9CA;}
	.st48{fill:#BB3D45;}
	.st49{fill:#42362F;}
	.st50{fill:#10CD88;}
	.st51{fill:#166BFF;}
	.st52{fill:#FDEA41;}
	.st53{fill:#FDE140;}
	.st54{fill:#FDCF3E;}
	.st55{fill:#FFB13F;}
	.st56{fill:#FFE65D;}
	.st57{fill:#FF8432;}
	.st58{fill:#3B4B92;}
	.st59{fill:#69CA6D;}
	.st60{fill:#54C16D;}
	.st61{fill:#32A373;}
	.st62{fill:#00D869;}
	.st63{fill:#00AB65;}
	.st64{fill:#00912A;}
	.st65{fill:#D6AF67;}
	.st66{fill:#8F8056;}
	.st67{fill:#4C4D4F;}
	.st68{fill:#B19254;}
	.st69{fill:#56585A;}
	.st70{fill:#7E724C;}
	.st71{fill:#1A8200;}
	.st72{fill:#2F6000;}
	.st73{fill:#053100;}
	.st74{fill:#092400;}
	.st75{fill:#011200;}
	.st76{fill:#788BD0;}
	.st77{fill:#2E2A2B;}
	.st78{fill:#393435;}
	.st79{fill:#231F20;}
	.st80{fill:#FFA323;}
	.st81{fill:#FFB124;}
	.st82{fill:#FF8F19;}
	.st83{fill:#76B620;}
	.st84{fill:#9CBE47;}
	.st85{fill:#F9DF37;}
	.st86{fill:#F9CC37;}
	.st87{fill:#7C9C47;}
	.st88{fill:#807947;}
	.st89{fill:#C6A66C;}
	.st90{fill:#B89B65;}
	.st91{fill:#493C35;}
	.st92{fill:#FFFFE8;}
	.st93{fill:#FFF8D6;}
	.st94{fill:#603913;}
	.st95{fill:#4C4B4D;}
	.st96{fill:#E4E5E6;}
	.st97{fill:#6C6D6F;}
	.st98{fill:#93DBAE;}
	.st99{fill:#EFF0F0;}
	.st100{fill:#CFD1D2;}
	.st101{fill:#FFE98C;}
	.st102{fill:#FFD76C;}
	.st103{fill:#8C97D8;}
	.st104{fill:#1CC7C7;}
	.st105{fill:#CC66B6;}
	.st106{fill:#CD7EC5;}
	.st107{fill:#E598D9;}
	.st108{fill:#A5A7AA;}
	.st109{fill:#D281C2;}
	.st110{fill:#B859A0;}
	.st111{fill:#BD73BB;}
	.st112{fill:#BABCBE;}
	.st113{fill:#646467;}
	.st114{fill:#7385C6;}
	.st115{fill:#F92322;}
	.st116{fill:#919396;}
	.st117{fill:#F0EFDE;}
	.st118{fill:#C1D4D9;}
	.st119{fill:#A2BEC7;}
	.st120{fill:#D8C7A9;}
	.st121{fill:#C8B89D;}
	.st122{fill:#DFDCC3;}
	.st123{fill:#856F6F;}
	.st124{fill:#808083;}
	.st125{fill:#FFCF75;}
	.st126{fill:#FFBE4B;}
	.st127{fill:#6C6D70;}
	.st128{fill:#FF956B;}
	.st129{fill:#FF795F;}
	.st130{fill:#82CD75;}
	.st131{fill:#55C05B;}
	.st132{fill:#5784D5;}
	.st133{fill:#3E73D5;}
	.st134{fill:#EF83A3;}
	.st135{fill:#EB6495;}
	.st136{fill:#B193CC;}
	.st137{fill:#9C80CC;}
	.st138{fill:#59595B;}
	.st139{fill:#6D574E;}
	.st140{fill:#634E45;}
	.st141{fill:#59453E;}
	.st142{fill:#4C3D36;}
	.st143{fill:#FFA88E;}
	.st144{fill:#CCA080;}
	.st145{fill:#A28F86;}
	.st146{fill:#AFC083;}
	.st147{fill:#B79073;}
	.st148{fill:#9DAC77;}
	.st149{fill:#8F7F77;}
	.st150{fill:#D99480;}
	.st151{fill:#EAD682;}
	.st152{fill:#7C6F72;}
</style>
<g>
	<g>
		<path class="st143" d="M61.99,34.98c4.08,2.12,4.08,7.96,0,10.08l-0.32,0.16l0.12,0.38c1.37,4.39-2.78,8.51-7.16,7.1l-0.37-0.12
			l-0.19,0.38c-2.12,4.09-7.97,4.09-10.09,0l-0.19-0.38l-0.37,0.12c-4.38,1.41-8.53-2.71-7.16-7.1l0.12-0.38l-0.32-0.16
			c-4.08-2.12-4.08-7.96,0-10.08l0.32-0.17l-0.12-0.37c-1.37-4.4,2.78-8.51,7.16-7.11l0.37,0.12l0.19-0.37
			c2.12-4.09,7.97-4.09,10.09,0l0.19,0.37l0.37-0.12c4.38-1.4,8.53,2.71,7.16,7.11l-0.12,0.37L61.99,34.98z M55.01,39.97
			c0-3.32-2.69-6-6-6c-3.32,0-6,2.68-6,6c0,3.31,2.68,6,6,6C52.32,45.97,55.01,43.28,55.01,39.97z"/>
		<path class="st144" d="M57.9,99c0.64,0,1.15,0.55,1.1,1.19l-0.82,9.8c-0.05,0.57-0.53,1.01-1.1,1.01H54H9.19H6.11
			c-0.57,0-1.05-0.44-1.1-1.01l-0.82-9.8C4.14,99.55,4.65,99,5.29,99h11.33h10.13H32h0.06h0.12h5.25h10.13H57.9z"/>
		<path class="st144" d="M54,111l-5.46,32.28c-0.25,1.57-1.61,2.72-3.2,2.72H44.1h-26h-0.25c-1.59,0-2.94-1.15-3.2-2.72L9.19,111H54
			z"/>
		<path class="st145" d="M49.01,33.97c3.31,0,6,2.68,6,6c0,3.31-2.69,6-6,6c-3.32,0-6-2.69-6-6C43.01,36.65,45.69,33.97,49.01,33.97
			z"/>
		<path class="st146" d="M37.43,99h-5.25c0-0.35-0.02-0.71-0.08-1.09c0-0.1,0.01-0.2,0.01-0.29c0.49-3.12,2.54-6.88,5.82-10.16
			c5.47-5.46,15.2-4.59,15.2-4.59s0.87,9.73-4.59,15.2c-0.33,0.32-0.65,0.63-0.98,0.93H37.43z"/>
		<path class="st144" d="M44.1,146v0.61c0,1.32-1.07,2.39-2.39,2.39H20.48c-1.32,0-2.38-1.07-2.38-2.39V146H44.1z"/>
		<path class="st101" d="M33.94,11.97c4.08,2.12,4.08,7.96,0,10.08l-0.32,0.16l0.12,0.38c1.37,4.39-2.78,8.51-7.16,7.1l-0.37-0.11
			l-0.19,0.37c-0.17,0.32-0.36,0.62-0.57,0.89c-2.45,3.17-7.57,2.88-9.52-0.89l-0.19-0.37l-0.37,0.11c-4.38,1.41-8.53-2.71-7.16-7.1
			l0.12-0.38l-0.32-0.16c-4.08-2.12-4.08-7.96,0-10.08l0.32-0.17l-0.12-0.37c-1.37-4.39,2.78-8.51,7.16-7.1l0.37,0.11l0.19-0.37
			c2.12-4.09,7.97-4.09,10.09,0l0.19,0.37l0.37-0.11c4.38-1.41,8.53,2.71,7.16,7.1l-0.12,0.37L33.94,11.97z M26.96,16.96
			c0-3.32-2.69-6-6-6c-3.32,0-6,2.68-6,6c0,3.31,2.68,6,6,6C24.27,22.96,26.96,20.27,26.96,16.96z"/>
		<path class="st147" d="M28.1,146.61V146h-0.25c-1.59,0-2.94-1.15-3.2-2.72L19.19,111h-3.08c-0.57,0-1.05-0.44-1.1-1.01l-0.82-9.8
			c-0.05-0.64,0.46-1.19,1.1-1.19h-10c-0.64,0-1.15,0.55-1.1,1.19l0.82,9.8c0.05,0.57,0.53,1.01,1.1,1.01h3.08l5.46,32.28
			c0.26,1.57,1.61,2.72,3.2,2.72h0.25v0.61c0,1.32,1.06,2.39,2.38,2.39h10C29.16,149,28.1,147.93,28.1,146.61z"/>
		<path class="st146" d="M26.75,99H16.62c-0.32-0.3-0.65-0.61-0.97-0.93c-5.47-5.47-4.6-15.2-4.6-15.2s9.74-0.87,15.2,4.59
			c2.94,2.94,4.89,6.26,5.61,9.16c0.06,0.79,0.11,1.59,0.14,2.38H26.75z"/>
		<path class="st143" d="M29.99,48.95c3.51,1.82,4,6.4,1.47,8.99c-0.41,0.42-0.9,0.79-1.47,1.09l-0.32,0.17l0.12,0.37
			c1.37,4.39-2.78,8.51-7.16,7.1l-0.37-0.11l-0.19,0.37c-2.12,4.09-7.97,4.09-10.09,0l-0.19-0.37l-0.37,0.11
			c-4.38,1.41-8.53-2.71-7.16-7.1l0.12-0.37l-0.32-0.17c-4.08-2.12-4.08-7.96,0-10.08l0.32-0.16l-0.12-0.38
			c-1.37-4.39,2.78-8.51,7.16-7.1l0.37,0.11l0.19-0.37c2.12-4.09,7.97-4.09,10.09,0l0.19,0.37l0.37-0.11
			c2.43-0.78,4.79,0.14,6.18,1.86c1.11,1.39,1.59,3.29,0.98,5.24l-0.12,0.38L29.99,48.95z M23.01,53.94c0-3.32-2.69-6-6-6
			c-3.32,0-6,2.68-6,6c0,3.31,2.68,6,6,6C20.32,59.94,23.01,57.25,23.01,53.94z"/>
		<path class="st145" d="M20.96,10.96c3.31,0,6,2.68,6,6c0,3.31-2.69,6-6,6c-3.32,0-6-2.69-6-6C14.96,13.64,17.64,10.96,20.96,10.96
			z"/>
		<path class="st145" d="M17.01,47.94c3.31,0,6,2.68,6,6c0,3.31-2.69,6-6,6c-3.32,0-6-2.69-6-6C11.01,50.62,13.69,47.94,17.01,47.94
			z"/>
		<path class="st148" d="M38.11,97.62c0.49-3.12,2.54-6.88,5.82-10.16c2.611-2.606,6.19-3.768,9.221-4.273
			c-0.011-0.202-0.021-0.317-0.021-0.317S43.4,82,37.93,87.46c-3.28,3.28-5.33,7.04-5.82,10.16c0,0.09-0.01,0.19-0.01,0.29
			c0.06,0.38,0.08,0.74,0.08,1.09h5.25h0.75c0-0.35-0.02-0.71-0.08-1.09C38.1,97.81,38.11,97.71,38.11,97.62z"/>
		<path class="st148" d="M17.029,83.186c-3.319-0.552-5.979-0.316-5.979-0.316s-0.87,9.73,4.6,15.2c0.32,0.32,0.65,0.63,0.97,0.93h6
			c-0.32-0.3-0.65-0.61-0.97-0.93C16.759,93.179,16.937,84.888,17.029,83.186z"/>
		<path class="st149" d="M47.01,39.97c0-2.616,1.667-4.829,3.998-5.652c-0.626-0.221-1.297-0.348-1.998-0.348c-3.32,0-6,2.68-6,6
			c0,3.31,2.68,6,6,6c0.701,0,1.372-0.127,1.998-0.349C48.677,44.796,47.01,42.579,47.01,39.97z"/>
		<path class="st149" d="M18.96,16.96c0-2.616,1.667-4.829,3.998-5.652c-0.626-0.221-1.297-0.348-1.998-0.348c-3.32,0-6,2.68-6,6
			c0,3.31,2.68,6,6,6c0.701,0,1.372-0.127,1.998-0.349C20.627,21.786,18.96,19.569,18.96,16.96z"/>
		<g>
			<path class="st150" d="M15.227,59.674c-2.45-0.757-4.226-3.039-4.226-5.733c0-2.694,1.765-4.966,4.204-5.727
				c-1.164-4.232,2.738-8.125,6.959-6.964l-0.102-0.199c-2.12-4.09-7.97-4.09-10.09,0l-0.19,0.37l-0.37-0.11
				c-4.38-1.41-8.53,2.71-7.16,7.1l0.12,0.37l-0.32,0.17c-4.08,2.12-4.08,7.96,0,10.08l0.32,0.16l-0.12,0.38
				c-1.37,4.39,2.78,8.51,7.16,7.1l0.37-0.11l0.19,0.37c1.95,3.77,7.07,4.06,9.52,0.89c0.21-0.27,0.4-0.57,0.57-0.89l0.102-0.199
				C17.912,67.902,13.978,63.941,15.227,59.674z"/>
		</g>
		<g>
			<path class="st150" d="M47.399,45.654c-2.45-0.757-4.226-3.039-4.226-5.733c0-2.694,1.765-4.966,4.204-5.727
				c-1.164-4.232,2.738-8.125,6.959-6.964l-0.102-0.199c-2.12-4.09-7.97-4.09-10.09,0l-0.19,0.37l-0.37-0.11
				c-4.38-1.41-8.53,2.71-7.16,7.1l0.12,0.37l-0.32,0.17c-4.08,2.12-4.08,7.96,0,10.08l0.32,0.16l-0.12,0.38
				c-1.37,4.39,2.78,8.51,7.16,7.1l0.37-0.11l0.19,0.37c1.95,3.77,7.07,4.06,9.52,0.89c0.21-0.27,0.4-0.57,0.57-0.89l0.102-0.199
				C50.084,53.882,46.15,49.921,47.399,45.654z"/>
		</g>
		<path class="st149" d="M15.01,53.94c0-2.616,1.667-4.829,3.998-5.652c-0.626-0.221-1.297-0.348-1.998-0.348c-3.32,0-6,2.68-6,6
			c0,3.31,2.68,6,6,6c0.701,0,1.372-0.127,1.998-0.349C16.677,58.766,15.01,56.549,15.01,53.94z"/>
		<g>
			<path class="st151" d="M19.186,22.693c-2.45-0.757-4.226-3.039-4.226-5.733c0-2.694,1.765-4.966,4.204-5.727
				c-1.164-4.232,2.738-8.125,6.959-6.964L26.02,4.07c-2.12-4.09-7.97-4.09-10.09,0l-0.19,0.37l-0.37-0.11
				c-4.38-1.41-8.53,2.71-7.16,7.1l0.12,0.37l-0.32,0.17c-4.08,2.12-4.08,7.96,0,10.08l0.32,0.16l-0.12,0.38
				c-1.37,4.39,2.78,8.51,7.16,7.1l0.37-0.11l0.19,0.37c1.95,3.77,7.07,4.06,9.52,0.89c0.21-0.27,0.4-0.57,0.57-0.89l0.102-0.199
				C21.87,30.921,17.937,26.961,19.186,22.693z"/>
		</g>
	</g>
	<g>
		<path class="st152" d="M24.01,53.94c0-3.86-3.141-7-7-7s-7,3.14-7,7s3.141,7,7,7S24.01,57.8,24.01,53.94z M17.01,58.94
			c-2.757,0-5-2.243-5-5s2.243-5,5-5s5,2.243,5,5S19.766,58.94,17.01,58.94z"/>
		<path class="st152" d="M49.01,32.97c-3.859,0-7,3.14-7,7s3.141,7,7,7s7-3.14,7-7S52.869,32.97,49.01,32.97z M49.01,44.97
			c-2.757,0-5-2.243-5-5s2.243-5,5-5s5,2.243,5,5S51.766,44.97,49.01,44.97z"/>
		<path class="st152" d="M27.96,16.96c0-3.86-3.141-7-7-7s-7,3.14-7,7s3.141,7,7,7S27.96,20.82,27.96,16.96z M20.96,21.96
			c-2.757,0-5-2.243-5-5s2.243-5,5-5s5,2.243,5,5S23.717,21.96,20.96,21.96z"/>
		<path class="st152" d="M66.05,40.02c0-2.348-1.213-4.492-3.189-5.697c0.565-2.297-0.087-4.633-1.788-6.321
			c-1.671-1.658-4.056-2.307-6.317-1.746c-1.204-2.011-3.363-3.244-5.729-3.244c-2.365,0-4.523,1.232-5.729,3.244
			c-2.26-0.562-4.646,0.087-6.317,1.745c-1.672,1.66-2.339,4.043-1.787,6.322c-1.979,1.209-3.19,3.352-3.19,5.697
			c0,2.341,1.206,4.479,3.189,5.695c-0.554,2.271,0.114,4.659,1.792,6.322c1.379,1.368,3.245,2.035,5.126,1.911
			c-3.632,6.894-6.441,14.732-8.327,23.171c-0.06-6.315-0.481-12.62-1.278-18.861c1.221-1.463,1.77-3.423,1.46-5.352
			c-0.312-1.937-1.429-3.592-3.104-4.613c0.479-1.941,0.075-3.922-1.122-5.541c-0.915-3.953-1.989-7.9-3.193-11.749
			c0.053-0.082,0.111-0.152,0.163-0.239c2.257,0.564,4.639-0.083,6.311-1.738c1.677-1.662,2.344-4.048,1.791-6.32
			C36.789,21.498,38,19.355,38,17.01c0-2.348-1.214-4.492-3.189-5.697c0.553-2.27-0.115-4.658-1.792-6.32
			c-1.676-1.66-4.063-2.305-6.309-1.74c-1.204-2.015-3.366-3.25-5.735-3.25s-4.529,1.235-5.733,3.251
			c-2.259-0.564-4.638,0.083-6.31,1.739c-1.675,1.66-2.343,4.044-1.791,6.32c-1.979,1.209-3.19,3.352-3.19,5.697
			c0,2.341,1.207,4.479,3.19,5.696c-0.554,2.271,0.113,4.659,1.791,6.322c1.675,1.66,4.068,2.307,6.31,1.74
			c1.092,1.833,2.975,3.027,5.113,3.221c0.209,0.019,0.418,0.028,0.625,0.028c1.462,0,2.852-0.475,3.99-1.326
			c0.8,2.626,1.542,5.291,2.209,7.972c-1.363-0.636-2.913-0.809-4.418-0.43c-1.204-2.015-3.365-3.25-5.734-3.25
			s-4.529,1.235-5.734,3.251c-2.258-0.563-4.637,0.083-6.309,1.738c-1.677,1.662-2.345,4.048-1.792,6.321
			c-1.979,1.209-3.189,3.351-3.189,5.697c0,2.348,1.214,4.492,3.189,5.697c-0.553,2.271,0.114,4.658,1.792,6.321
			c1.675,1.66,4.066,2.306,6.309,1.739c1.204,2.015,3.365,3.25,5.734,3.25c2.015,0,3.875-0.901,5.128-2.408
			c3.945,6.538,6.659,14.039,7.98,22.019c-0.9-1.338-1.965-2.645-3.176-3.855c-5.724-5.725-15.584-4.918-15.996-4.879
			c-0.482,0.043-0.864,0.425-0.907,0.907c-0.036,0.398-0.76,9.416,4.196,15.219H5.29c-0.583,0-1.145,0.246-1.542,0.676
			s-0.6,1.01-0.554,1.598l0.819,9.806C4.109,111.156,5.03,112,6.11,112h2.235l5.319,31.443c0.301,1.819,1.709,3.194,3.469,3.493
			c0.166,1.715,1.595,3.064,3.347,3.064H41.71c1.736,0,3.155-1.316,3.351-3h0.279c2.098,0,3.859-1.498,4.187-3.553L54.845,112h2.235
			c1.08,0,2.001-0.844,2.097-1.927l0.82-9.806c0.045-0.582-0.157-1.162-0.555-1.592S58.483,98,57.9,98h-7.96
			c4.948-5.803,4.222-14.821,4.186-15.219c-0.043-0.482-0.425-0.864-0.907-0.907c-0.416-0.038-10.26-0.846-15.995,4.879
			c-1.462,1.462-2.695,3.036-3.683,4.636c1.309-13.633,4.913-26.278,10.433-36.685c1.252,1.455,3.075,2.324,5.052,2.324
			c2.365,0,4.522-1.231,5.733-3.251c2.258,0.564,4.64-0.083,6.31-1.74c1.677-1.662,2.344-4.048,1.791-6.32
			C64.839,44.508,66.05,42.365,66.05,40.02z M30.963,62.313c0.856,8.308,1.055,16.711,0.595,25.077
			c-1.467-7.003-3.989-13.601-7.468-19.465c1.828,0.078,3.633-0.586,4.978-1.918C30.099,64.985,30.744,63.689,30.963,62.313z
			 M20.535,31.997c-1.614-0.146-2.969-1.06-3.715-2.504l-0.19-0.37c-0.176-0.34-0.522-0.542-0.89-0.542
			c-0.095,0-0.19,0.013-0.284,0.042l-0.393,0.117c-1.692,0.546-3.459,0.122-4.724-1.132c-1.267-1.255-1.706-3.019-1.177-4.715
			l0.12-0.38c0.148-0.469-0.066-0.976-0.506-1.196L8.47,21.163C6.892,20.342,5.95,18.79,5.95,17.01c0-1.78,0.942-3.332,2.529-4.157
			l0.32-0.17c0.429-0.228,0.631-0.73,0.481-1.192l-0.116-0.358c-0.531-1.7-0.092-3.464,1.175-4.719
			c1.264-1.254,3.029-1.677,4.746-1.125l0.37,0.11c0.46,0.139,0.953-0.073,1.174-0.501l0.188-0.368
			c0.82-1.583,2.374-2.527,4.156-2.527s3.336,0.944,4.156,2.525l0.188,0.368c0.22,0.43,0.721,0.642,1.175,0.503l0.393-0.117
			c1.695-0.543,3.46-0.122,4.724,1.132c1.267,1.255,1.706,3.019,1.179,4.708l-0.12,0.37c-0.149,0.461,0.053,0.964,0.481,1.192
			l0.329,0.175C35.057,13.678,36,15.23,36,17.01c0,1.78-0.942,3.333-2.507,4.146l-0.32,0.16c-0.439,0.22-0.654,0.727-0.506,1.196
			l0.119,0.376c0.53,1.7,0.091,3.464-1.176,4.719c-1.265,1.254-3.031,1.677-4.746,1.125l-0.37-0.11
			c-0.454-0.138-0.955,0.075-1.175,0.503l-0.182,0.356c-0.147,0.276-0.308,0.527-0.479,0.748
			C23.69,31.481,22.14,32.147,20.535,31.997z M21.18,66.473c-0.82,1.581-2.374,2.525-4.155,2.525c-1.782,0-3.337-0.945-4.155-2.525
			l-0.19-0.37c-0.176-0.34-0.522-0.542-0.89-0.542c-0.095,0-0.19,0.013-0.284,0.042l-0.393,0.117
			c-1.691,0.543-3.459,0.122-4.723-1.131c-1.267-1.255-1.706-3.02-1.18-4.708l0.12-0.37c0.149-0.461-0.053-0.963-0.48-1.191
			l-0.329-0.175c-1.578-0.82-2.521-2.373-2.521-4.152c0-1.78,0.942-3.333,2.508-4.146l0.319-0.16
			c0.439-0.22,0.653-0.727,0.505-1.195l-0.118-0.376c-0.53-1.7-0.091-3.464,1.176-4.72c1.264-1.254,3.03-1.677,4.745-1.124
			l0.37,0.11c0.457,0.139,0.953-0.073,1.174-0.501l0.188-0.367c0.82-1.583,2.375-2.528,4.157-2.528s3.337,0.945,4.154,2.523
			l0.189,0.37c0.221,0.43,0.718,0.642,1.175,0.503l0.392-0.116c1.854-0.597,3.858,0.005,5.094,1.531
			c0.984,1.235,1.279,2.809,0.808,4.315l-0.12,0.38c-0.148,0.469,0.066,0.976,0.506,1.196l0.308,0.153
			c1.327,0.688,2.224,1.922,2.459,3.386c0.236,1.475-0.229,2.977-1.245,4.017c-0.349,0.358-0.76,0.662-1.224,0.906l-0.32,0.17
			c-0.429,0.228-0.631,0.73-0.481,1.192l0.117,0.358c0.53,1.7,0.091,3.464-1.176,4.719c-1.265,1.253-3.031,1.677-4.746,1.125
			l-0.37-0.11c-0.457-0.136-0.954,0.075-1.175,0.503L21.18,66.473z M16.357,97.363c-4.15-4.151-4.399-11.105-4.35-13.535
			c2.432-0.049,9.392,0.196,13.535,4.339c2.675,2.675,4.61,5.813,5.326,8.626c0.03,0.401,0.048,0.804,0.071,1.207h-3.702
			c-1.961-2.593-4.159-5.05-6.554-7.299c-0.402-0.378-1.036-0.36-1.413,0.044c-0.379,0.402-0.358,1.035,0.044,1.413
			c1.938,1.821,3.74,3.783,5.39,5.842h-7.683C16.8,97.79,16.576,97.582,16.357,97.363z M41.71,148H20.48
			c-0.625,0-1.149-0.424-1.318-1h23.875C42.868,147.576,42.34,148,41.71,148z M47.553,143.123C47.379,144.211,46.448,145,45.34,145
			H17.85c-1.103,0-2.033-0.792-2.214-1.887L10.374,112h42.442L47.553,143.123z M58.004,100.107l-0.819,9.794
			C57.179,109.955,57.132,110,57.08,110H6.11c-0.052,0-0.1-0.045-0.104-0.093l-0.819-9.8L4.19,100.19l1.1-0.19H57.9L58.004,100.107z
			 M38.637,88.168c4.152-4.145,11.117-4.389,13.536-4.34c0.052,2.429-0.196,9.383-4.398,13.591
			c-0.206,0.199-0.409,0.389-0.612,0.581h-7.687c1.638-2.042,3.44-4.004,5.391-5.843c0.402-0.379,0.421-1.012,0.042-1.413
			c-0.378-0.402-1.014-0.422-1.413-0.042c-2.413,2.274-4.609,4.73-6.552,7.298h-3.831c-0.005-0.043-0.003-0.092-0.009-0.135
			l0.004-0.126C33.592,94.723,35.655,91.149,38.637,88.168z M61.543,44.166l-0.32,0.16c-0.439,0.22-0.654,0.727-0.506,1.196
			l0.119,0.376c0.53,1.7,0.091,3.463-1.176,4.718c-1.265,1.254-3.032,1.676-4.722,1.133l-0.37-0.12
			c-0.466-0.154-0.982,0.062-1.203,0.505L53.182,52.5c-0.82,1.583-2.375,2.528-4.157,2.528s-3.337-0.945-4.151-2.516l-0.19-0.38
			c-0.173-0.346-0.523-0.552-0.894-0.552c-0.103,0-0.207,0.016-0.309,0.049l-0.368,0.119c-1.69,0.544-3.459,0.122-4.723-1.131
			c-1.267-1.255-1.706-3.019-1.178-4.715l0.12-0.38c0.148-0.468-0.065-0.975-0.505-1.195l-0.307-0.153
			c-1.578-0.82-2.521-2.373-2.521-4.153s0.942-3.333,2.529-4.157l0.319-0.17c0.428-0.228,0.631-0.73,0.481-1.191l-0.116-0.359
			c-0.53-1.702-0.092-3.467,1.173-4.722c1.264-1.255,3.031-1.68,4.724-1.139l0.37,0.12c0.464,0.152,0.974-0.058,1.198-0.494
			l0.188-0.368c0.82-1.583,2.375-2.528,4.157-2.528c1.781,0,3.335,0.944,4.155,2.525l0.188,0.369
			c0.225,0.437,0.735,0.647,1.199,0.496l0.366-0.119c1.697-0.543,3.463-0.116,4.729,1.138c1.264,1.255,1.702,3.02,1.176,4.71
			l-0.12,0.37c-0.149,0.462,0.054,0.964,0.482,1.192l0.328,0.174c1.578,0.82,2.521,2.373,2.521,4.153S63.107,43.353,61.543,44.166z"
			/>
	</g>
</g>
</svg>
