<?xml version="1.0" encoding="utf-8"?>
<!-- Generator: Adobe Illustrator 19.2.1, SVG Export Plug-In . SVG Version: 6.00 Build 0)  -->
<svg version="1.1" id="Layer_1" xmlns="http://www.w3.org/2000/svg" xmlns:xlink="http://www.w3.org/1999/xlink" x="0px" y="0px"
	 viewBox="0 0 149.977 150" style="enable-background:new 0 0 149.977 150;" xml:space="preserve">
<style type="text/css">
	.st0{fill:#96B98A;}
	.st1{fill:#E1B98A;}
	.st2{fill:#87A77C;}
	.st3{fill:#CCA87E;}
	.st4{fill:#E9BACE;}
	.st5{fill:#FFFFFF;}
	.st6{fill:#F1F2F2;}
	.st7{fill:#CFA6B9;}
	.st8{fill:#947A7C;}
	.st9{fill:#59A7F1;}
	.st10{fill:#F0F1F1;}
	.st11{fill:#59B4FF;}
	.st12{fill:#23C7E3;}
	.st13{fill:#FFED98;}
	.st14{fill:#DBDCDD;}
	.st15{fill:#23B4D1;}
	.st16{fill:#4795F1;}
	.st17{fill:#FEDB8B;}
	.st18{fill:#2270CC;}
	.st19{fill:#FFD624;}
	.st20{fill:#FFB724;}
	.st21{fill:#14DB84;}
	.st22{fill:#14AF68;}
	.st23{fill:#58595B;}
	.st24{fill:#8AA860;}
	.st25{fill:#FF899B;}
	.st26{fill:#FF7A8E;}
	.st27{fill:#7E9B57;}
	.st28{fill:#FFB8C6;}
	.st29{fill:#845B5F;}
	.st30{fill:#F0C956;}
	.st31{fill:#F0BE45;}
	.st32{fill:#E9C956;}
	.st33{fill:#58393E;}
	.st34{fill:#0094D3;}
	.st35{fill:#2484C6;}
	.st36{fill:#8E6D6A;}
	.st37{fill:#826461;}
	.st38{fill:none;stroke:#58393E;stroke-width:4;stroke-linecap:round;stroke-linejoin:round;stroke-miterlimit:10;}
	.st39{fill:#005A99;}
	.st40{fill:#414042;}
	.st41{fill:#3C3B3D;}
	.st42{fill:#005490;}
	.st43{fill:#0087EE;}
	.st44{fill:#4ED1FF;}
	.st45{fill:#C3D79B;}
	.st46{fill:#FFFEEE;}
	.st47{fill:#9CAD8C;}
	.st48{fill:#5B5C5E;}
	.st49{fill:#C4B795;}
	.st50{fill:#E5E6E7;}
	.st51{fill:#BBBDBF;}
	.st52{fill:#EAEBEB;}
	.st53{fill:#B38E62;}
	.st54{fill:#4D4E50;}
	.st55{fill:#656568;}
	.st56{fill:#93764F;}
	.st57{fill:#CDAA6D;}
	.st58{fill:#F0FFFF;}
	.st59{fill:#BDE3FF;}
	.st60{fill:#C5FFFF;}
	.st61{fill:#F8F8F8;}
	.st62{fill:#6886C5;}
	.st63{fill:#BC9D8C;}
	.st64{fill:#594A42;}
	.st65{fill:#6253FF;}
	.st66{fill:#E7FB86;}
	.st67{fill:#FFDA5C;}
	.st68{fill:#FFB93D;}
	.st69{fill:#39393A;}
</style>
<g>
	<path class="st40" d="M120.978,49.998c0,5.41-3.3,10.04-7.99,12l-0.37,0.2c-3.91-7.07-9.77-12.93-16.84-16.84l0.2-0.36
		c1.96-4.7,6.59-8,12-8C115.158,36.998,120.978,42.818,120.978,49.998z"/>
	<path class="st40" d="M54.097,45.308c0.02,0.02,0.03,0.05,0.03,0.07c-7.05,3.92-12.89,9.76-16.79,16.82l-0.37-0.2
		c-4.69-1.96-7.99-6.59-7.99-12c0-7.18,5.82-13,13-13C47.507,36.998,52.217,40.448,54.097,45.308z"/>
	<path class="st5" d="M54.127,45.378c6.17-3.43,13.28-5.38,20.85-5.38c7.55,0,14.64,1.94,20.8,5.36
		c7.07,3.91,12.93,9.77,16.84,16.84c3.42,6.16,5.36,13.25,5.36,20.8c0,23.75-19.25,43-43,43s-43-19.25-43-43
		c0-7.55,1.94-14.64,5.36-20.8C41.237,55.138,47.077,49.298,54.127,45.378z"/>
	<path class="st67" d="M147.977,74.998c0,18.59-6.95,35.55-18.39,48.44l-0.5-0.44c-5.45-6.02-11.9-11.13-19.08-15.06
		c5.02-7.03,7.97-15.64,7.97-24.94c0-7.54-1.94-14.63-5.36-20.79l0.37-0.21c4.69-1.96,7.99-6.59,7.99-12c0-7.18-5.82-13-13-13
		c-5.41,0-10.04,3.3-12,8h-0.86c-6.01-3.19-12.86-5-20.14-5s-14.13,1.81-20.14,5l-0.74,0.31c-1.88-4.86-6.59-8.31-12.12-8.31
		c-7.18,0-13,5.82-13,13c0,5.41,3.3,10.04,7.99,12l0.37,0.21c-3.42,6.16-5.36,13.25-5.36,20.79c0,9.3,2.95,17.91,7.97,24.94
		c-7.18,3.93-13.63,9.04-19.08,15.06l-0.5,0.44c-11.44-12.89-18.39-29.85-18.39-48.44c0-40.32,32.68-73,73-73
		S147.977,34.678,147.977,74.998z"/>
	<g>
		<path class="st68" d="M37.337,62.208l-0.37-0.21c-4.69-1.96-7.99-6.59-7.99-12c0-2.506,0.721-4.838,1.949-6.823
			c-6.203,0.985-10.949,6.342-10.949,12.823c0,5.41,3.3,10.04,7.99,12l0.37,0.21c-3.42,6.16-5.36,13.25-5.36,20.79
			c0,9.256,2.924,17.827,7.901,24.839c2.868-2.178,5.892-4.16,9.069-5.899c-5.02-7.03-7.97-15.64-7.97-24.94
			C31.977,75.458,33.917,68.368,37.337,62.208z"/>
	</g>
	<path class="st40" d="M129.087,122.998l0.5,0.44c-13.37,15.07-32.88,24.56-54.61,24.56s-41.24-9.49-54.61-24.56l0.5-0.44
		c5.45-6.02,11.9-11.13,19.08-15.06c7.79,10.93,20.58,18.06,35.03,18.06s27.24-7.13,35.03-18.06
		C117.188,111.868,123.637,116.978,129.087,122.998z"/>
	<path class="st40" d="M54.097,45.308c0.02,0.02,0.03,0.05,0.03,0.07c-7.05,3.92-12.89,9.76-16.79,16.82l-0.37-0.2
		c-4.69-1.96-7.99-6.59-7.99-12c0-7.18,5.82-13,13-13C47.507,36.998,52.217,40.448,54.097,45.308z"/>
	<path class="st69" d="M35.977,54.998c0-7.18,5.82-13,13-13c1.257,0,2.469,0.186,3.617,0.519c-2.35-3.335-6.222-5.519-10.617-5.519
		c-7.18,0-13,5.82-13,13c0,5.41,3.3,10.04,7.99,12l0.37,0.2c0.125-0.227,0.27-0.442,0.399-0.666
		C36.619,59.612,35.977,57.381,35.977,54.998z"/>
	<g>
		<path class="st69" d="M31.977,131.998c5.021-5.546,11.4-10.308,17.907-14.098c-3.83-2.759-7.198-6.119-9.938-9.962
			c-7.18,3.93-13.63,9.04-19.08,15.06l-0.5,0.44c3.199,3.606,6.757,6.883,10.61,9.791L31.977,131.998z"/>
	</g>
	<path class="st50" d="M41.978,82.998c0-7.55,1.94-14.64,5.36-20.8c3.9-7.06,9.74-12.9,16.79-16.82
		c4.791-2.663,10.152-4.419,15.851-5.078c-1.642-0.19-3.308-0.302-5.001-0.302c-7.57,0-14.68,1.95-20.85,5.38
		c-7.05,3.92-12.89,9.76-16.79,16.82c-3.42,6.16-5.36,13.25-5.36,20.8c0,23.75,19.25,43,43,43c1.692,0,3.359-0.108,5-0.299
		C58.585,123.221,41.978,105.056,41.978,82.998z"/>
	<g>
		<path class="st40" d="M74.978-0.002c-41.355,0-75,33.645-75,75c0,18.366,6.71,36.041,18.894,49.767
			c14.227,16.035,34.677,25.232,56.106,25.232s41.879-9.197,56.105-25.232c12.185-13.728,18.895-31.402,18.895-49.767
			C149.978,33.643,116.333-0.002,74.978-0.002z M74.978,3.998c39.149,0,71,31.851,71,71c0,16.674-5.857,32.736-16.51,45.489
			c-4.904-5.191-10.481-9.629-16.623-13.224c4.506-7.008,7.133-15.333,7.133-24.266c0-6.931-1.617-13.77-4.663-19.923
			c4.701-2.633,7.663-7.591,7.663-13.076c0-8.271-6.729-15-15-15c-5.485,0-10.44,2.961-13.073,7.664
			c-6.154-3.046-12.995-4.664-19.927-4.664c-6.934,0-13.775,1.615-19.931,4.659c-2.625-4.709-7.549-7.659-13.069-7.659
			c-8.271,0-15,6.729-15,15c0,5.485,2.96,10.443,7.662,13.076c-3.044,6.152-4.662,12.991-4.662,19.923
			c0,8.933,2.627,17.259,7.133,24.266c-6.143,3.595-11.721,8.032-16.624,13.223C9.834,107.735,3.978,91.673,3.978,74.998
			C3.978,35.849,35.829,3.998,74.978,3.998z M41.676,106.869c-0.031-0.05-0.067-0.096-0.102-0.143
			c-4.775-6.703-7.596-14.89-7.596-23.728c0-6.953,1.767-13.81,5.11-19.833c3.686-6.671,9.152-12.167,15.813-15.92
			c0.139-0.057,0.268-0.132,0.389-0.217c5.989-3.287,12.79-5.03,19.688-5.03c6.952,0,13.81,1.767,19.832,5.11
			c6.764,3.742,12.316,9.294,16.058,16.058l0.001,0.003c3.343,6.021,5.109,12.877,5.109,19.829c0,8.817-2.807,16.986-7.562,23.68
			c-0.04,0.05-0.076,0.102-0.11,0.155c-7.446,10.382-19.606,17.165-33.328,17.165C61.272,123.998,49.124,117.23,41.676,106.869z
			 M36.577,59.577c-3.436-1.934-5.599-5.564-5.599-9.579c0-6.065,4.935-11,11-11c4.041,0,7.645,2.156,9.572,5.599
			C45.424,48.343,40.302,53.467,36.577,59.577z M113.377,59.578c-3.735-6.121-8.856-11.244-14.976-14.978
			c1.934-3.438,5.562-5.602,9.577-5.602c6.065,0,11,4.935,11,11C118.978,54.014,116.814,57.644,113.377,59.578z M74.978,145.998
			c-19.656,0-38.425-8.192-51.824-22.509c4.78-5.109,10.243-9.455,16.277-12.947c8.24,10.609,21.105,17.456,35.548,17.456
			s27.308-6.846,35.547-17.455c6.032,3.491,11.496,7.837,16.276,12.947C113.402,137.805,94.633,145.998,74.978,145.998z"/>
		<path class="st40" d="M69.682,89.111c-0.49,0.852-0.488,1.909,0.017,2.78l3.279,5.508v1.748c-4.58,0.69-8.492,3.725-10.274,8.119
			c-0.415,1.023,0.078,2.19,1.102,2.605c0.246,0.1,0.501,0.147,0.751,0.147c0.791,0,1.539-0.472,1.854-1.249
			c1.422-3.507,4.785-5.772,8.567-5.772c3.783,0,7.146,2.266,8.566,5.771c0.415,1.024,1.58,1.518,2.604,1.103
			s1.518-1.581,1.103-2.604c-1.782-4.396-5.693-7.43-10.273-8.12v-1.749l3.29-5.527c0.493-0.852,0.496-1.91,0.005-2.762
			c-0.487-0.847-1.397-1.372-2.375-1.372h-5.841C71.079,87.738,70.169,88.264,69.682,89.111z"/>
	</g>
	<path class="st40" d="M72.17,72.655c-0.712-4.857-4.713-8.739-9.594-9.253c-4.406-0.463-9.206,1.592-13.64,12.537
		c-2.478,6.116,3.057,12.405,9.373,10.492C58.308,86.43,73.872,84.272,72.17,72.655z"/>
	<path class="st5" d="M56.016,81.454c-0.215,0-0.434-0.035-0.649-0.109c-1.045-0.358-1.601-1.496-1.242-2.541
		c1.079-3.145,3.923-5.293,7.243-5.473c1.565-0.084,3.121,0.284,4.48,1.065c0.957,0.551,1.287,1.773,0.736,2.731
		c-0.549,0.958-1.771,1.288-2.73,0.736c-0.686-0.395-1.469-0.579-2.271-0.538c-1.685,0.091-3.128,1.182-3.676,2.777
		C57.623,80.931,56.847,81.454,56.016,81.454z"/>
	<path class="st40" d="M77.83,72.655c0.712-4.857,4.713-8.739,9.594-9.253c4.406-0.463,9.206,1.592,13.64,12.537
		c2.478,6.116-3.057,12.405-9.373,10.492C91.692,86.43,76.128,84.272,77.83,72.655z"/>
	<path class="st5" d="M93.985,81.454c-0.831,0-1.606-0.521-1.892-1.352c-0.548-1.596-1.992-2.687-3.678-2.777
		c-0.788-0.042-1.582,0.144-2.271,0.539c-0.955,0.55-2.18,0.22-2.73-0.738c-0.55-0.958-0.22-2.18,0.738-2.73
		c1.358-0.781,2.905-1.149,4.479-1.064c3.321,0.18,6.164,2.328,7.245,5.473c0.358,1.044-0.197,2.182-1.242,2.541
		C94.419,81.419,94.201,81.454,93.985,81.454z"/>
	<path class="st69" d="M53.936,75.939c3.277-8.086,6.752-11.313,10.121-12.263c-0.483-0.123-0.976-0.22-1.481-0.273
		c-4.406-0.463-9.206,1.592-13.64,12.537c-2.478,6.116,3.057,12.405,9.373,10.491c0,0,0.117-0.017,0.316-0.051
		C54.641,85.036,52.109,80.446,53.936,75.939z"/>
</g>
</svg>
